<svg xmlns="http://www.w3.org/2000/svg" width="85" height="85" viewBox="0 0 85 85">
  <g fill="none" fill-rule="evenodd" transform="translate(16 22)">
    <path fill="#000" fill-rule="nonzero" d="M10.14,41.9117646 L10.14,39.2647057 C10.14,38.2499999 9.48666666,37.588235 8.36666666,37.588235 C7.80666666,37.588235 7.19999998,37.7647056 6.77999999,38.3382351 C6.45333332,37.852941 5.98666665,37.588235 5.28666666,37.588235 C4.81999999,37.588235 4.35333332,37.7205881 3.98,38.2058824 L3.98,37.6764704 L3,37.6764704 L3,41.9117646 L3.98,41.9117646 L3.98,39.5735293 C3.98,38.8235293 4.39999999,38.4705882 5.05333333,38.4705882 C5.70666666,38.4705882 6.03333332,38.8676468 6.03333332,39.5735293 L6.03333332,41.9117646 L7.01333332,41.9117646 L7.01333332,39.5735293 C7.01333332,38.8235293 7.47999999,38.4705882 8.08666665,38.4705882 C8.73999998,38.4705882 9.06666667,38.8676468 9.06666667,39.5735293 L9.06666667,41.9117646 L10.14,41.9117646 Z M24.6533333,37.6764704 L23.0666666,37.6764704 L23.0666666,36.3970587 L22.0866668,36.3970587 L22.0866668,37.6764704 L21.2,37.6764704 L21.2,38.5147056 L22.0866668,38.5147056 L22.0866668,40.4558823 C22.0866668,41.4264706 22.5066666,42 23.6266668,42 C24.0466666,42 24.5133334,41.8676469 24.84,41.6911763 L24.5600001,40.8970588 C24.28,41.0735292 23.9533334,41.1176469 23.72,41.1176469 C23.2533335,41.1176469 23.0666666,40.8529411 23.0666666,40.4117646 L23.0666666,38.5147056 L24.6533333,38.5147056 L24.6533333,37.6764704 Z M32.96,37.588235 C32.4,37.588235 32.0266667,37.852941 31.7933333,38.2058824 L31.7933333,37.6764704 L30.8133333,37.6764704 L30.8133333,41.9117646 L31.7933333,41.9117646 L31.7933333,39.5294116 C31.7933333,38.8235293 32.1199999,38.4264705 32.7266666,38.4264705 C32.9133333,38.4264705 33.1466667,38.4705882 33.3333333,38.5147056 L33.6133334,37.6323527 C33.4266668,37.588235 33.1466667,37.588235 32.96,37.588235 Z M20.4066666,38.0294116 C19.94,37.7205881 19.2866667,37.588235 18.5866667,37.588235 C17.4666667,37.588235 16.7199999,38.117647 16.7199999,38.9558822 C16.7199999,39.6617647 17.28,40.0588234 18.2599999,40.1911765 L18.7266667,40.235294 C19.24,40.3235292 19.52,40.4558823 19.52,40.6764705 C19.52,40.985294 19.1466666,41.2058823 18.4933333,41.2058823 C17.84,41.2058823 17.3266666,40.985294 16.9999999,40.7647057 L16.5333333,41.4705883 C17.0466667,41.8235292 17.7466667,42 18.4466666,42 C19.7533333,42 20.5,41.4264706 20.5,40.6323528 C20.5,39.8823528 19.8933333,39.4852942 18.96,39.3529411 L18.4933333,39.3088234 C18.0733333,39.2647057 17.7466667,39.1764705 17.7466667,38.9117647 C17.7466667,38.602941 18.0733333,38.4264705 18.5866667,38.4264705 C19.1466666,38.4264705 19.7066666,38.6470587 19.9866666,38.7794116 L20.4066666,38.0294116 Z M46.4466667,37.588235 C45.8866667,37.588235 45.5133334,37.852941 45.28,38.2058824 L45.28,37.6764704 L44.3,37.6764704 L44.3,41.9117646 L45.28,41.9117646 L45.28,39.5294116 C45.28,38.8235293 45.6066666,38.4264705 46.2133333,38.4264705 C46.4,38.4264705 46.6333334,38.4705882 46.82,38.5147056 L47.1000001,37.6323527 C46.9133335,37.588235 46.6333334,37.588235 46.4466667,37.588235 Z M33.94,39.7941174 C33.94,41.0735292 34.8733333,42 36.3200001,42 C36.9733333,42 37.4400001,41.8676469 37.9066666,41.5147057 L37.4400001,40.7647057 C37.0666668,41.0294117 36.6933334,41.1617646 36.2733334,41.1617646 C35.48,41.1617646 34.9200001,40.6323528 34.9200001,39.7941174 C34.9200001,38.9999999 35.48,38.4705882 36.2733334,38.4264705 C36.6933334,38.4264705 37.0666668,38.5588233 37.4400001,38.8235293 L37.9066666,38.0735293 C37.4400001,37.7205881 36.9733333,37.588235 36.3200001,37.588235 C34.8733333,37.588235 33.94,38.5147056 33.94,39.7941174 Z M42.9933334,39.7941174 L42.9933334,37.6764704 L42.0133334,37.6764704 L42.0133334,38.2058824 C41.6866668,37.8088233 41.22,37.588235 40.6133333,37.588235 C39.3533334,37.588235 38.3733334,38.5147056 38.3733334,39.7941174 C38.3733334,41.0735292 39.3533334,42 40.6133333,42 C41.2666667,42 41.7333335,41.7794115 42.0133334,41.3823529 L42.0133334,41.9117646 L42.9933334,41.9117646 L42.9933334,39.7941174 Z M39.4000001,39.7941174 C39.4000001,39.0441174 39.9133334,38.4264705 40.7533335,38.4264705 C41.5466668,38.4264705 42.1066668,38.9999999 42.1066668,39.7941174 C42.1066668,40.5441174 41.5466668,41.1617646 40.7533335,41.1617646 C39.9133334,41.1176469 39.4000001,40.5441174 39.4000001,39.7941174 Z M27.6866666,37.588235 C26.38,37.588235 25.4466667,38.4705882 25.4466667,39.7941174 C25.4466667,41.1176469 26.38,42 27.7333333,42 C28.3866667,42 29.0399999,41.8235292 29.5533332,41.4264706 L29.0866667,40.7647057 C28.7133333,41.0294117 28.2466666,41.2058823 27.78,41.2058823 C27.1733333,41.2058823 26.5666666,40.9411765 26.4266667,40.1911765 L29.7399999,40.1911765 L29.7399999,39.8382351 C29.7866666,38.4705882 28.9466665,37.588235 27.6866666,37.588235 Z M27.6866666,38.3823528 C28.2933333,38.3823528 28.7133333,38.7352941 28.8066666,39.3970588 L26.4733334,39.3970588 C26.5666666,38.8235293 26.9866667,38.3823528 27.6866666,38.3823528 Z M52,39.7941174 L52,36 L51.02,36 L51.02,38.2058824 C50.6933334,37.8088233 50.2266666,37.588235 49.6200001,37.588235 C48.36,37.588235 47.38,38.5147056 47.38,39.7941174 C47.38,41.0735292 48.36,42 49.6200001,42 C50.2733333,42 50.7400001,41.7794115 51.02,41.3823529 L51.02,41.9117646 L52,41.9117646 L52,39.7941174 Z M48.4066667,39.7941174 C48.4066667,39.0441174 48.92,38.4264705 49.7600001,38.4264705 C50.5533334,38.4264705 51.1133334,38.9999999 51.1133334,39.7941174 C51.1133334,40.5441174 50.5533334,41.1617646 49.7600001,41.1617646 C48.92,41.1176469 48.4066667,40.5441174 48.4066667,39.7941174 Z M15.6466667,39.7941174 L15.6466667,37.6764704 L14.6666667,37.6764704 L14.6666667,38.2058824 C14.34,37.8088233 13.8733333,37.588235 13.2666666,37.588235 C12.0066666,37.588235 11.0266666,38.5147056 11.0266666,39.7941174 C11.0266666,41.0735292 12.0066666,42 13.2666666,42 C13.9199999,42 14.3866667,41.7794115 14.6666667,41.3823529 L14.6666667,41.9117646 L15.6466667,41.9117646 L15.6466667,39.7941174 Z M12.0066666,39.7941174 C12.0066666,39.0441174 12.52,38.4264705 13.36,38.4264705 C14.1533333,38.4264705 14.7133333,38.9999999 14.7133333,39.7941174 C14.7133333,40.5441174 14.1533333,41.1617646 13.36,41.1617646 C12.52,41.1176469 12.0066666,40.5441174 12.0066666,39.7941174 Z"/>
    <rect width="15" height="26" x="19" y="4" fill="#FF5F00"/>
    <path fill="#EB001B" d="M20.6443299,16.5 C20.6443299,11.2291666 23.1494845,6.55416667 27,3.52916667 C24.1701029,1.32916667 20.5979381,0 16.7010309,0 C7.46907214,0 0,7.37916667 0,16.5 C0,25.6208333 7.46907214,33 16.7010309,33 C20.5979381,33 24.1701029,31.6708333 27,29.4708334 C23.1494845,26.4916666 20.6443299,21.7708335 20.6443299,16.5 Z"/>
    <path fill="#F79E1B" d="M54,16.5 C54,25.6208333 46.5309278,33 37.298969,33 C33.4020617,33 29.8298966,31.6708333 27,29.4708334 C30.8969071,26.4458334 33.3556699,21.7708335 33.3556699,16.5 C33.3556699,11.2291666 30.8505153,6.55416667 27,3.52916667 C29.8298966,1.32916667 33.4020617,0 37.298969,0 C46.5309278,0 54,7.42500001 54,16.5 Z"/>
  </g>
</svg>
