<svg xmlns="http://www.w3.org/2000/svg" xmlns:xlink="http://www.w3.org/1999/xlink" width="85" height="85" viewBox="0 0 85 85">
  <defs>
    <polygon id="visa-a" points=".448 0 18.684 0 18.684 24 .448 24"/>
  </defs>
  <g fill="none" fill-rule="evenodd" transform="translate(6 30)">
    <path fill="#1A1C76" d="M61.0511862 15.8111703L65.8865778 15.8111703C65.3025674 12.9689345 64.7268443 10.1673233 64.1511212 7.36571206 64.1233344 7.36422579 64.0950601 7.36273952 64.0672733 7.36125326 63.0659734 10.1663324 62.0646734 12.9714116 61.0511862 15.8111703zM73 24L67.5762106 24C67.3373416 22.8550798 67.1033474 21.7289857 66.8605785 20.5617716L66.4510887 20.5617716C64.2242444 20.5617716 61.9969126 20.5692029 59.7705557 20.5533494 59.4429639 20.5508723 59.3035424 20.6554063 59.2016575 20.9660359 58.901365 21.8825665 58.5732857 22.7896841 58.2335067 23.6913521 58.1847579 23.819171 58.0107247 23.9846419 57.8932402 23.9856328 55.9491388 24.003468 54.0050374 23.9985137 52 23.9985137 52.0760481 23.8013358 52.1335717 23.6418099 52.1979201 23.4852566 55.0311992 16.6063226 57.8659409 9.72837941 60.6997075 2.84994083 61.2149821 1.59900037 62.0744231 1.00944823 63.4086773 1.00598027 64.9111147 1.0020169 66.4135522 1.01093449 67.9159896 1.00003521 68.180208.998053521 68.2777056 1.07930272 68.3332792 1.35079396 69.8508287 8.77221502 71.379103 16.1916544 72.9059149 23.6105983 72.9278518 23.7151324 72.9683133 23.815703 73 23.9182554L73 24zM28 1.00797277C27.620206 1.91214237 27.2692069 2.74946482 26.9177113 3.58629211 24.119151 10.2477344 21.3181085 16.9076912 18.528981 23.57359 18.4008936 23.8791062 18.2613876 24.0028972 17.9133673 23.9994311 16.0963138 23.9796245 14.2787638 23.9791294 12.4622068 23.9999262 12.1146829 24.0033924 12.0014894 23.8850482 11.920566 23.5696287 10.3656448 17.5370447 8.79285094 11.5089173 7.24339084 5.47435272 7.00508874 4.54740557 6.50018617 3.90913908 5.63236937 3.49864806 3.93297754 2.69450161 2.14124364 2.18101646.322700757 1.74131076.220925903 1.71704772.1211369 1.6843669 0 1.64970541.0412064044 1.43975584.076951719 1.25555481.121633362 1.02876966.264614621 1.02183736.40958173 1.0089631.55454884 1.0089631 3.73836416 1.00797277 6.92168301 1.00549695 10.1054983 1.0089631 11.7060941 1.01094375 12.73824 1.886889 13.0366141 3.46695756 13.8473377 7.75804943 14.6625295 12.0486461 15.4762318 16.339738 15.4856646 16.3897496 15.501055 16.4397612 15.5368003 16.5803877 15.6296388 16.3778656 15.6956684 16.2506085 15.7482934 16.1183997 17.6944272 11.2113237 19.6430433 6.30474288 21.577262 1.39271526 21.6979024 1.08620869 21.8503165.997574324 22.1715279 1.00005014 24.0834057 1.01639056 25.9957801 1.00797277 28 1.00797277"/>
    <g transform="translate(35)">
      <mask id="visa-b" fill="#fff">
        <use xlink:href="#visa-a"/>
      </mask>
      <path fill="#1A1C76" d="M0.44785,22.78565 C0.81335,21.07515 1.16885,19.41165 1.53285,17.70765 C1.95435,17.89115 2.34935,18.07165 2.75085,18.23615 C4.73835,19.04965 6.79535,19.40665 8.92135,19.00165 C9.51885,18.88765 10.12985,18.59865 10.62285,18.23665 C11.50835,17.58715 11.57335,16.37465 10.75035,15.65365 C10.11835,15.09915 9.36385,14.67865 8.64285,14.23265 C7.54635,13.55415 6.36485,12.99565 5.33835,12.22715 C1.97235,9.70865 2.55985,5.90265 4.31435,3.60615 C5.61685,1.90115 7.41235,0.95465 9.44885,0.44815 C12.48135,-0.30635 15.47435,-0.08535 18.41635,0.93865 C18.49285,0.96515 18.56585,1.00215 18.68385,1.05265 C18.33935,2.66165 17.99635,4.26765 17.63935,5.93565 C17.45885,5.86465 17.30085,5.80215 17.14285,5.73965 C15.29485,5.01315 13.39135,4.64015 11.41335,4.98365 C10.87735,5.07715 10.32485,5.31515 9.87785,5.62715 C8.93085,6.28865 8.89735,7.39315 9.81835,8.09265 C10.54635,8.64565 11.37485,9.06715 12.16035,9.54465 C13.14585,10.14365 14.18335,10.67115 15.10885,11.35115 C17.32735,12.98165 18.00435,15.20915 17.36335,17.84465 C16.70685,20.54665 14.85685,22.15865 12.36335,23.12765 C10.13535,23.99315 7.81035,24.11365 5.45835,23.92065 C3.98885,23.79915 2.54285,23.53815 1.14485,23.05415 C0.92535,22.97815 0.71135,22.88715 0.44785,22.78565" mask="url(#visa-b)"/>
    </g>
    <path fill="#1A1C76" d="M36,1.00051416 C35.7764432,2.04658242 35.56846,3.03024319 35.3554531,4.01241808 C33.9503106,10.490909 32.5391396,16.967914 31.1495707,23.4493767 C31.0571337,23.8817714 30.9024023,24.0075769 30.455791,23.9996522 C28.8115181,23.969439 27.1662404,23.987765 25.5214651,23.987765 L25,23.987765 C25.1346365,23.3428877 25.2562112,22.7386248 25.387331,22.1358478 C26.734198,15.9233316 28.0825722,9.71131076 29.4314487,3.4992899 C29.5901991,2.76773554 29.7434235,2.03469528 29.9232737,1.30809389 C29.9524114,1.1897178 30.1071429,1.01438249 30.205106,1.0133919 C32.1106138,0.996056487 34.016624,1.00051416 36,1.00051416"/>
  </g>
</svg>
